<?xml version="1.0" encoding="UTF-8"?>
<!DOCTYPE svg PUBLIC "-//W3C//DTD SVG 1.1//EN" "http://www.w3.org/Graphics/SVG/1.1/DTD/svg11.dtd">
<svg xmlns="http://www.w3.org/2000/svg" version="1.1" width="120px" height="112px" style="shape-rendering:geometricPrecision; text-rendering:geometricPrecision; image-rendering:optimizeQuality; fill-rule:evenodd; clip-rule:evenodd" xmlns:xlink="http://www.w3.org/1999/xlink">
<g><path style="opacity:1" fill="#e2e3e4" d="M -0.5,-0.5 C 39.5,-0.5 79.5,-0.5 119.5,-0.5C 119.5,36.8333 119.5,74.1667 119.5,111.5C 79.5,111.5 39.5,111.5 -0.5,111.5C -0.5,74.1667 -0.5,36.8333 -0.5,-0.5 Z"/></g>
<g><path style="opacity:1" fill="#8ccab3" d="M 74.5,13.5 C 66.9809,13.175 59.6476,13.5084 52.5,14.5C 51.9569,14.44 51.6236,14.1067 51.5,13.5C 59.3235,12.1801 66.9902,12.1801 74.5,13.5 Z"/></g>
<g><path style="opacity:1" fill="#59c0de" d="M 62.5,29.5 C 51.94,24.7754 41.2733,24.4421 30.5,28.5C 25.1877,23.8544 20.1877,18.8544 15.5,13.5C 26.1511,12.3343 36.8177,12.1676 47.5,13C 53.0761,18.0713 58.0761,23.5713 62.5,29.5 Z"/></g>
<g><path style="opacity:1" fill="#4bba89" d="M 52.5,14.5 C 59.6476,13.5084 66.9809,13.175 74.5,13.5C 77.1522,13.4095 79.4855,14.0762 81.5,15.5C 84.4425,21.7181 87.1091,28.0515 89.5,34.5C 82.0813,28.1345 73.4147,25.1345 63.5,25.5C 59.4729,22.1396 55.8062,18.4729 52.5,14.5 Z"/></g>
<g><path style="opacity:1" fill="#43a7c3" d="M 62.5,29.5 C 65.6662,31.8337 68.3329,34.6671 70.5,38C 59.8333,38.6667 49.1667,38.6667 38.5,38C 35.2463,35.2532 32.5797,32.0865 30.5,28.5C 41.2733,24.4421 51.94,24.7754 62.5,29.5 Z"/></g>
<g><path style="opacity:1" fill="#32a47f" d="M 63.5,25.5 C 73.4147,25.1345 82.0813,28.1345 89.5,34.5C 92.4213,42.1008 94.088,50.1008 94.5,58.5C 88.1186,51.4519 81.4519,44.7853 74.5,38.5C 70.4579,34.46 66.7912,30.1267 63.5,25.5 Z"/></g>
<g><path style="opacity:1" fill="#308fbc" d="M 22.5,25.5 C 22.3345,29.5138 22.5012,33.5138 23,37.5C 27.8004,43.3017 32.967,48.8017 38.5,54C 33.3333,59.1667 28.1667,64.3333 23,69.5C 22.5005,75.8246 22.3338,82.1579 22.5,88.5C 21.1667,67.5 21.1667,46.5 22.5,25.5 Z"/></g>
<g><path style="opacity:1" fill="#59c592" d="M 81.5,15.5 C 98.1533,23.153 103.653,35.8197 98,53.5C 97.3028,55.5844 96.1361,57.2511 94.5,58.5C 94.088,50.1008 92.4213,42.1008 89.5,34.5C 87.1091,28.0515 84.4425,21.7181 81.5,15.5 Z"/></g>
<g><path style="opacity:1" fill="#0a7970" d="M 68.5,71.5 C 62.2794,71.0564 56.2794,69.723 50.5,67.5C 49.8333,67.5 49.5,67.1667 49.5,66.5C 49.3342,61.8215 49.5008,57.1548 50,52.5C 55.6984,59.3641 61.8651,65.6974 68.5,71.5 Z"/></g>
<g><path style="opacity:1" fill="#208f7c" d="M 74.5,38.5 C 81.4519,44.7853 88.1186,51.4519 94.5,58.5C 93.4566,61.0562 91.7899,63.2228 89.5,65C 86.308,66.7281 83.308,68.5614 80.5,70.5C 76.5341,71.1621 72.5341,71.4955 68.5,71.5C 61.8651,65.6974 55.6984,59.3641 50,52.5C 49.5008,57.1548 49.3342,61.8215 49.5,66.5C 48.5128,61.6946 48.1795,56.6946 48.5,51.5C 56.9174,51.9057 65.2508,51.4057 73.5,50C 77.08,46.4419 77.4134,42.6085 74.5,38.5 Z"/></g>
<g><path style="opacity:1" fill="#1f6ea3" d="M 22.5,25.5 C 30.4952,32.662 37.9952,40.3287 45,48.5C 45.6667,54.1667 45.6667,59.8333 45,65.5C 37.9952,73.6713 30.4952,81.338 22.5,88.5C 22.3338,82.1579 22.5005,75.8246 23,69.5C 28.1667,64.3333 33.3333,59.1667 38.5,54C 32.967,48.8017 27.8004,43.3017 23,37.5C 22.5012,33.5138 22.3345,29.5138 22.5,25.5 Z"/></g>
<g><path style="opacity:1" fill="#177d76" d="M 80.5,70.5 C 90.6345,81.4721 100.634,92.6388 110.5,104C 100.991,104.824 91.6575,104.658 82.5,103.5C 86.8461,103.666 91.1794,103.499 95.5,103C 86.2901,92.6277 77.2901,82.1277 68.5,71.5C 72.5341,71.4955 76.5341,71.1621 80.5,70.5 Z"/></g>
<g><path style="opacity:1" fill="#081828" d="M 45.5,103.5 C 34.9865,103.828 24.6532,103.494 14.5,102.5C 24.4609,91.37 34.6276,80.37 45,69.5C 45.4999,80.8284 45.6665,92.1618 45.5,103.5 Z"/></g>
<g><path style="opacity:1" fill="#095d59" d="M 50.5,67.5 C 56.2794,69.723 62.2794,71.0564 68.5,71.5C 77.2901,82.1277 86.2901,92.6277 95.5,103C 91.1794,103.499 86.8461,103.666 82.5,103.5C 71.4908,91.823 60.8241,79.823 50.5,67.5 Z"/></g>
<g><path style="opacity:1" fill="#5a626a" d="M 14.5,102.5 C 24.6532,103.494 34.9865,103.828 45.5,103.5C 34.6745,104.659 23.6745,104.826 12.5,104C 13.0442,103.283 13.7109,102.783 14.5,102.5 Z"/></g>
</svg>
